<svg width="45" height="45" viewBox="0 0 45 45" fill="none" xmlns="http://www.w3.org/2000/svg">
<path opacity="0.2" fill-rule="evenodd" clip-rule="evenodd" d="M26.5625 12.5H31.3125V35.0625H26.5625V12.5Z" fill="#D82D8B"/>
<path d="M27.75 5.375C28.0649 5.375 28.367 5.50011 28.5897 5.72281C28.8124 5.94551 28.9375 6.24756 28.9375 6.5625C28.9375 6.87744 28.8124 7.17949 28.5897 7.40219C28.367 7.62489 28.0649 7.75 27.75 7.75H26.5625V11.3125H30.125C31.0333 11.3126 31.9073 11.6597 32.5682 12.2828C33.2291 12.9059 33.6271 13.7579 33.6807 14.6646L33.6875 14.875V32.6875C33.6875 34.2374 32.6968 35.5565 31.3125 36.0464V37.4375C31.3125 37.7524 31.1874 38.0545 30.9647 38.2772C30.742 38.4999 30.4399 38.625 30.125 38.625C29.8101 38.625 29.508 38.4999 29.2853 38.2772C29.0626 38.0545 28.9375 37.7524 28.9375 37.4375V36.25H17.0625V37.4375C17.0625 37.7524 16.9374 38.0545 16.7147 38.2772C16.492 38.4999 16.1899 38.625 15.875 38.625C15.5601 38.625 15.258 38.4999 15.0353 38.2772C14.8126 38.0545 14.6875 37.7524 14.6875 37.4375V36.0464C14.0266 35.8125 13.4493 35.389 13.0278 34.8287C12.6064 34.2684 12.3594 33.5964 12.3179 32.8965L12.3125 32.6875V25.5625C12.3126 25.2596 12.4284 24.9682 12.6363 24.7479C12.8441 24.5277 13.1283 24.3951 13.4307 24.3774C13.733 24.3597 14.0307 24.4583 14.2628 24.6528C14.4949 24.8474 14.6439 25.1233 14.6794 25.4241L14.6875 25.5625V32.6875C14.6875 33.2955 15.1462 33.7976 15.7366 33.8669L15.875 33.875H17.3679L17.6108 32.0591C17.7573 30.9599 18.2838 29.9465 19.099 29.1947C19.9143 28.4429 20.9669 28.0001 22.0744 27.9429L22.3187 27.9375H23.6813C24.79 27.9378 25.8636 28.3258 26.7163 29.0344C27.5689 29.7431 28.1468 30.7276 28.3499 31.8176L28.3906 32.0591L28.6308 33.875H30.125C30.4162 33.8753 30.6974 33.7686 30.9151 33.5752C31.1327 33.3818 31.2718 33.1151 31.3057 32.8259L31.3125 32.6875V14.875C31.3128 14.5838 31.2061 14.3026 31.0127 14.0849C30.8193 13.8673 30.5526 13.7282 30.2634 13.6943L30.125 13.6875H15.875C15.5838 13.6872 15.3026 13.7939 15.0849 13.9873C14.8673 14.1807 14.7282 14.4474 14.6943 14.7366L14.6875 14.875V17.25C14.6874 17.5529 14.5716 17.8443 14.3637 18.0646C14.1559 18.2848 13.8717 18.4174 13.5693 18.4351C13.267 18.4528 12.9693 18.3542 12.7372 18.1597C12.5051 17.9651 12.3561 17.6892 12.3206 17.3884L12.3125 17.25V14.875C12.3126 13.9667 12.6597 13.0927 13.2828 12.4318C13.9059 11.7709 14.7579 11.3729 15.6646 11.3193L15.875 11.3125H19.4375V7.75H18.25C17.9351 7.75 17.633 7.62489 17.4103 7.40219C17.1876 7.17949 17.0625 6.87744 17.0625 6.5625C17.0625 6.24756 17.1876 5.94551 17.4103 5.72281C17.633 5.50011 17.9351 5.375 18.25 5.375H27.75ZM23.6813 30.3125H22.3187C21.1923 30.3125 20.2287 31.1024 19.9966 32.1894L19.9654 32.3726L19.7551 33.875H26.2476L26.0346 32.3726C25.9627 31.8341 25.7083 31.3365 25.3139 30.9628C24.9195 30.5892 24.4089 30.362 23.8672 30.3193L23.6813 30.3125ZM13.5 19.6277C14.1094 19.6277 14.6115 20.0864 14.6807 20.6768L14.6875 20.8152V22C14.6874 22.3029 14.5716 22.5943 14.3637 22.8146C14.1559 23.0348 13.8717 23.1674 13.5693 23.1851C13.267 23.2028 12.9693 23.1042 12.7372 22.9097C12.5051 22.7151 12.3561 22.4392 12.3206 22.1384L12.3125 22V20.8152C12.3125 20.1597 12.8445 19.6277 13.5 19.6277ZM27.75 16.0625C28.0649 16.0625 28.367 16.1876 28.5897 16.4103C28.8124 16.633 28.9375 16.9351 28.9375 17.25C28.9375 17.5649 28.8124 17.867 28.5897 18.0897C28.367 18.3124 28.0649 18.4375 27.75 18.4375H18.25C17.9351 18.4375 17.633 18.3124 17.4103 18.0897C17.1876 17.867 17.0625 17.5649 17.0625 17.25C17.0625 16.9351 17.1876 16.633 17.4103 16.4103C17.633 16.1876 17.9351 16.0625 18.25 16.0625H27.75ZM24.1875 7.75H21.8125V11.3125H24.1875V7.75Z" fill="#D82D8B"/>
</svg>
