<svg xmlns="http://www.w3.org/2000/svg" width="45" height="45" viewBox="0 0 45 45" fill="none">
<path d="M15.7791 18.0416L15.9488 18.078L17.9401 18.5745C18.3362 18.6729 18.5615 19.0221 18.4439 19.3543C18.3339 19.6621 17.9674 19.847 17.5985 19.7932L17.5134 19.7763L15.522 19.2798C15.4375 19.2588 15.35 19.2503 15.2626 19.2548L15.1758 19.2635L14.4288 19.3761L18.5111 21.7814L18.899 21.591L19.5754 21.268L20.2326 20.9635C23.9026 19.2951 26.6583 18.5337 28.5245 18.549C30.4701 18.5642 31.667 19.7187 30.6004 20.6611C30.5831 20.6769 30.5645 20.6927 30.5443 20.7095L30.4122 20.8139L30.253 20.9298L30.0671 21.057L29.9641 21.125L29.7377 21.2696L29.484 21.4257L28.8946 21.7732L28.5587 21.9646L28.0028 22.2746L27.3832 22.6118L26.2101 23.2361L25.6264 23.5406L23.1122 28.6987C22.8487 29.2392 22.3687 29.6841 21.7584 29.9592L21.6026 30.0245L19.2517 30.9403C18.69 31.1589 18.0722 30.744 18.2048 30.2371L19.3797 25.7567L13.1277 27.406C12.8046 27.4914 12.4571 27.3832 12.2765 27.1504L12.2307 27.0836L10.0767 23.3911C9.87053 23.0387 10.0975 22.6167 10.5486 22.5117L12.031 22.1669C12.1395 22.1414 12.2524 22.1369 12.3628 22.1537C12.4732 22.1705 12.5788 22.2083 12.6731 22.2648L14.5689 23.4286L14.6575 23.4074C14.8532 23.3568 15.0825 23.2839 15.3454 23.1893L15.6766 23.0648C15.7345 23.0425 15.7936 23.0191 15.8538 22.9946L16.2325 22.8391L16.4329 22.7532L16.8573 22.5661L17.0733 22.4671L12.1045 19.5392C11.5857 19.2336 11.7328 18.5723 12.3159 18.4271L12.4021 18.4097L14.91 18.0302C15.1984 17.9864 15.4927 17.9903 15.7797 18.0416H15.7791ZM28.5101 19.8024C27.301 19.7927 25.5297 20.2049 23.2083 21.1076L22.6629 21.3246C22.1996 21.5127 21.7173 21.7194 21.2141 21.9451L20.6003 22.2246L20.2859 22.3714L19.6431 22.6787L19.0536 22.9685L18.5505 23.2132L18.0727 23.4389L17.6199 23.6472L17.1914 23.837L16.7878 24.0083L16.4086 24.1622L16.053 24.2981C15.423 24.5298 14.9123 24.6712 14.5139 24.7223C14.32 24.7479 14.1228 24.7074 13.958 24.6081L12.0808 23.4563L11.8156 23.5178L13.2921 26.0476L20.1625 24.2356C20.6837 24.0986 21.1886 24.4586 21.1319 24.898L21.1185 24.9687L19.9905 29.2686L20.972 28.8874C21.2665 28.7764 21.5135 28.577 21.6744 28.3202L21.7265 28.2245L24.334 22.8788C24.3936 22.7559 24.4979 22.6526 24.6322 22.583L25.3855 22.1892L26.0792 21.8222L26.7127 21.4817L27.4632 21.0701L27.9542 20.7927L28.5124 20.4675L28.8581 20.2571L29.1407 20.0749C29.1962 20.0374 29.2472 20.0026 29.2935 19.9694L29.3561 19.9243L29.3445 19.9188C29.2055 19.8639 28.9768 19.8182 28.6537 19.8057L28.5101 19.8024ZM19.5638 19.2037L19.6478 19.2255L20.3814 19.4582C20.7676 19.5806 20.9628 19.9422 20.8163 20.2663C20.6802 20.567 20.298 20.7291 19.935 20.6524L19.8516 20.6307L19.1179 20.3979C18.7311 20.2756 18.5366 19.9139 18.6825 19.5898C18.8186 19.2891 19.2001 19.127 19.5638 19.2037Z" fill="#D82D8B"/>
<path fill-rule="evenodd" clip-rule="evenodd" d="M32.5 10.25H38.75V15.2943L36.1071 17.7429L38.75 20.3514V25.1886L36.1071 27.7214L38.75 30.27V35.25H32.5V10.25Z" fill="#FAD1E8"/>
<path d="M11.2814 9C11.6002 9.00011 11.907 9.12203 12.1389 9.34082C12.3707 9.55962 12.5103 9.85875 12.5289 10.177C12.5475 10.4953 12.4438 10.8086 12.239 11.053C12.0342 11.2973 11.7438 11.4542 11.4271 11.4914L11.2814 11.5L7.5 11.4986V14.2129L7.51429 14.2186C8.20647 14.4667 8.81052 14.9126 9.25142 15.5011C9.69232 16.0896 9.95063 16.7946 9.99429 17.5286L10 17.75C10 18.4838 9.78482 19.2014 9.38109 19.8141C8.97736 20.4268 8.40281 20.9077 7.72857 21.1971L7.5 21.2857V24.2114L7.51429 24.2186C8.20647 24.4667 8.81052 24.9126 9.25142 25.5011C9.69232 26.0896 9.95063 26.7946 9.99429 27.5286L10 27.75C10 28.4838 9.78482 29.2014 9.38109 29.8141C8.97736 30.4268 8.40281 30.9077 7.72857 31.1971L7.5 31.2857V33.9986H37.5V31.2857L37.4857 31.2814C36.7933 31.0332 36.1891 30.587 35.7482 29.9983C35.3073 29.4096 35.0491 28.7043 35.0057 27.97L35 27.75C35 26.2043 35.9357 24.8757 37.2714 24.3029L37.5 24.2114V21.2857L37.4857 21.2814C36.7933 21.0332 36.1891 20.587 35.7482 19.9983C35.3073 19.4096 35.0491 18.7043 35.0057 17.97L35 17.75C35 16.2043 35.9357 14.8757 37.2714 14.3029L37.5 14.2114V11.4971L19.9486 11.5C19.642 11.5003 19.3461 11.388 19.1169 11.1844C18.8878 10.9808 18.7414 10.7002 18.7057 10.3957L18.6986 10.25C18.6986 9.60714 19.1814 9.08 19.8029 9.00714L19.9486 9H38.75C39.3914 9 39.92 9.48143 39.9929 10.1043L40 10.25V15.25C40 15.5563 39.8875 15.8519 39.684 16.0807C39.4804 16.3096 39.1999 16.4557 38.8957 16.4914L38.75 16.5C38.4312 16.5001 38.1245 16.622 37.8926 16.8408C37.6607 17.0596 37.5212 17.3587 37.5026 17.677C37.4839 17.9953 37.5876 18.3086 37.7924 18.553C37.9972 18.7973 38.2877 18.9542 38.6043 18.9914L38.75 19C39.3914 19 39.92 19.4814 39.9929 20.1043L40 20.25V25.25C40 25.5563 39.8875 25.8519 39.684 26.0807C39.4804 26.3096 39.1999 26.4557 38.8957 26.4914L38.75 26.5C38.4312 26.5001 38.1245 26.622 37.8926 26.8408C37.6607 27.0596 37.5212 27.3587 37.5026 27.677C37.4839 27.9953 37.5876 28.3086 37.7924 28.553C37.9972 28.7973 38.2877 28.9542 38.6043 28.9914L38.75 29C39.3914 29 39.92 29.4814 39.9929 30.1043L40 30.25V35.25C40 35.5563 39.8875 35.8519 39.684 36.0807C39.4804 36.3096 39.1999 36.4557 38.8957 36.4914L38.75 36.5H6.25C5.94347 36.5003 5.64751 36.388 5.41837 36.1844C5.18922 35.9808 5.04287 35.7001 5.00714 35.3957L5 35.25V30.25C5 29.6071 5.48286 29.08 6.10429 29.0071L6.25 29C6.56881 28.9999 6.87554 28.878 7.10743 28.6592C7.33931 28.4404 7.47883 28.1413 7.49745 27.823C7.51606 27.5047 7.41236 27.1914 7.20756 26.947C7.00276 26.7027 6.71234 26.5458 6.39571 26.5086L6.25 26.5C5.94347 26.5003 5.64751 26.388 5.41837 26.1844C5.18922 25.9808 5.04287 25.7001 5.00714 25.3957L5 25.25V20.25C5 19.6071 5.48286 19.08 6.10429 19.0071L6.25 19C6.56881 18.9999 6.87554 18.878 7.10743 18.6592C7.33931 18.4404 7.47883 18.1413 7.49745 17.823C7.51606 17.5047 7.41236 17.1914 7.20756 16.947C7.00276 16.7027 6.71234 16.5458 6.39571 16.5086L6.25 16.5C5.94347 16.5003 5.64751 16.388 5.41837 16.1844C5.18922 15.9808 5.04287 15.7002 5.00714 15.3957L5 15.25V10.25C5 9.60714 5.48286 9.08 6.10429 9.00714L6.25 9H11.2814ZM16.3614 9C16.6802 9.00011 16.987 9.12203 17.2189 9.34082C17.4507 9.55962 17.5903 9.85875 17.6089 10.177C17.6275 10.4953 17.5238 10.8086 17.319 11.053C17.1142 11.2973 16.8238 11.4542 16.5071 11.4914L16.3614 11.5H15.0386C14.7198 11.4999 14.413 11.378 14.1811 11.1592C13.9493 10.9404 13.8097 10.6413 13.7911 10.323C13.7725 10.0047 13.8762 9.69136 14.081 9.44702C14.2858 9.20269 14.5762 9.04584 14.8929 9.00857L15.0386 9H16.3614Z" fill="#D82D8B"/>
</svg>