<svg width="45" height="45" viewBox="0 0 45 45" fill="none" xmlns="http://www.w3.org/2000/svg">
<path fill-rule="evenodd" clip-rule="evenodd" d="M31.9285 10.2241H38.0486V34.7046H31.9285V10.2241Z" fill="#FAD1E8"/>
<path d="M12.3442 9L12.4868 9.00839C12.7969 9.04489 13.0813 9.19848 13.2818 9.43773C13.4824 9.67699 13.5839 9.98384 13.5657 10.2955C13.5475 10.6071 13.4108 10.9001 13.1838 11.1143C12.9567 11.3286 12.6563 11.4479 12.3442 11.4481H8.67208L8.52939 11.4564C8.23152 11.4914 7.95685 11.6345 7.75752 11.8586C7.55819 12.0827 7.44806 12.3722 7.44805 12.6721V32.2565L7.45644 32.3992C7.52639 33.0077 8.04398 33.4805 8.67208 33.4805H24.7942L24.881 33.2567C25.1644 32.5964 25.6353 32.0338 26.2353 31.6385C26.8352 31.2432 27.538 31.0325 28.2565 31.0325L28.4719 31.038C29.1907 31.0804 29.8813 31.333 30.4578 31.7645C31.0343 32.196 31.4713 32.7874 31.7145 33.4651L31.7201 33.4791H35.6006L35.7433 33.4721C36.0414 33.4371 36.3163 33.2938 36.5157 33.0694C36.715 32.845 36.825 32.5552 36.8247 32.2551V12.6707L36.8163 12.5294C36.7813 12.2315 36.6382 11.9569 36.4141 11.7575C36.19 11.5582 35.9005 11.4481 35.6006 11.4481H31.7201L31.632 11.6719C31.3485 12.3321 30.8777 12.8947 30.2777 13.29C29.6777 13.6854 28.975 13.8961 28.2565 13.8961L28.0411 13.8891C27.3222 13.8467 26.6317 13.5941 26.0552 13.1626C25.4787 12.7311 25.0417 12.1398 24.7984 11.462L24.7942 11.4481H20.9123L20.7696 11.4397C20.4596 11.4032 20.1752 11.2496 19.9747 11.0103C19.7741 10.7711 19.6726 10.4642 19.6908 10.1526C19.709 9.8409 19.8457 9.54799 20.0727 9.33374C20.2998 9.11949 20.6001 9.0001 20.9123 9H25.8084L25.9511 9.00839C26.5596 9.07834 27.0325 9.59593 27.0325 10.224L27.0408 10.3667C27.0773 10.6768 27.2309 10.9611 27.4702 11.1617C27.7094 11.3622 28.0163 11.4638 28.3279 11.4456C28.6396 11.4273 28.9325 11.2907 29.1468 11.0636C29.361 10.8366 29.4804 10.5362 29.4805 10.224L29.4889 10.0813C29.5239 9.78347 29.667 9.5088 29.8911 9.30947C30.1151 9.11013 30.4046 9.00001 30.7045 9H35.6006L35.8161 9.0056C36.7509 9.06054 37.6295 9.47059 38.272 10.1519C38.9146 10.8332 39.2725 11.7342 39.2727 12.6707V32.2551L39.2671 32.4719C39.2118 33.4068 38.8014 34.2852 38.1199 34.9275C37.4383 35.5697 36.5371 35.9274 35.6006 35.9272H30.7045L30.5618 35.9202C30.2637 35.8852 29.9889 35.7419 29.7895 35.5175C29.5901 35.2931 29.4802 35.0033 29.4805 34.7031L29.4721 34.5618C29.4356 34.2518 29.282 33.9674 29.0428 33.7669C28.8035 33.5663 28.4967 33.4648 28.185 33.483C27.8734 33.5012 27.5804 33.6379 27.3662 33.8649C27.1519 34.092 27.0326 34.3923 27.0325 34.7045L27.0241 34.8472C26.9891 35.1451 26.846 35.4198 26.6219 35.6191C26.3978 35.8184 26.1083 35.9285 25.8084 35.9286H8.67208L8.45665 35.9216C7.52177 35.8666 6.64322 35.4566 6.00068 34.7753C5.35814 34.094 5.00017 33.193 5 32.2565V12.6721L5.0056 12.4552C5.06089 11.5204 5.47129 10.642 6.15284 9.99969C6.83438 9.35741 7.73558 8.99979 8.67208 9H12.3442ZM22.7491 23.6883C23.1509 23.6883 23.5488 23.7675 23.9201 23.9212C24.2914 24.075 24.6287 24.3004 24.9129 24.5846C25.197 24.8687 25.4224 25.2061 25.5762 25.5773C25.73 25.9486 25.8091 26.3465 25.8091 26.7484C25.8091 27.1502 25.73 27.5481 25.5762 27.9194C25.4224 28.2907 25.197 28.628 24.9129 28.9122C24.6287 29.1963 24.2914 29.4217 23.9201 29.5755C23.5488 29.7293 23.1509 29.8084 22.7491 29.8084C21.9375 29.8084 21.1591 29.486 20.5853 28.9122C20.0114 28.3383 19.689 27.5599 19.689 26.7484C19.689 25.9368 20.0114 25.1584 20.5853 24.5846C21.1591 24.0107 21.9375 23.6883 22.7491 23.6883V23.6883ZM24.2263 16.7023C24.6669 17.1429 24.7019 17.8382 24.3284 18.318L24.2263 18.4327L14.4341 28.2249C14.2139 28.4447 13.9182 28.5725 13.6072 28.5821C13.2962 28.5917 12.9932 28.4826 12.7598 28.2768C12.5264 28.071 12.3801 27.7841 12.3507 27.4743C12.3213 27.1645 12.411 26.8552 12.6015 26.6092L12.7023 26.4945L22.4945 16.7023C22.6081 16.5885 22.7431 16.4982 22.8917 16.4366C23.0403 16.3751 23.1995 16.3434 23.3604 16.3434C23.5212 16.3434 23.6805 16.3751 23.829 16.4366C23.9776 16.4982 24.1126 16.5885 24.2263 16.7023V16.7023ZM22.7491 26.1364C22.5867 26.1364 22.4311 26.2008 22.3163 26.3156C22.2015 26.4304 22.1371 26.586 22.1371 26.7484C22.1371 26.9107 22.2015 27.0663 22.3163 27.1811C22.4311 27.2959 22.5867 27.3604 22.7491 27.3604C22.9114 27.3604 23.067 27.2959 23.1818 27.1811C23.2966 27.0663 23.3611 26.9107 23.3611 26.7484C23.3611 26.586 23.2966 26.4304 23.1818 26.3156C23.067 26.2008 22.9114 26.1364 22.7491 26.1364V26.1364ZM14.1781 15.1201C14.5854 15.1114 14.9904 15.1841 15.3693 15.334C15.7482 15.4839 16.0934 15.7079 16.3845 15.9929C16.6757 16.2779 16.9071 16.6182 17.065 16.9938C17.2229 17.3694 17.3043 17.7727 17.3043 18.1802C17.3043 18.5876 17.2229 18.991 17.065 19.3666C16.9071 19.7422 16.6757 20.0825 16.3845 20.3675C16.0934 20.6525 15.7482 20.8765 15.3693 21.0264C14.9904 21.1762 14.5854 21.249 14.1781 21.2403C13.3778 21.2231 12.6161 20.8932 12.0562 20.3212C11.4963 19.7492 11.1828 18.9806 11.1828 18.1802C11.1828 17.3798 11.4963 16.6112 12.0562 16.0392C12.6161 15.4672 13.3778 15.1372 14.1781 15.1201V15.1201ZM14.1781 17.5682C14.0158 17.5682 13.8601 17.6327 13.7453 17.7474C13.6306 17.8622 13.5661 18.0179 13.5661 18.1802C13.5661 18.3425 13.6306 18.4982 13.7453 18.6129C13.8601 18.7277 14.0158 18.7922 14.1781 18.7922C14.3404 18.7922 14.4961 18.7277 14.6108 18.6129C14.7256 18.4982 14.7901 18.3425 14.7901 18.1802C14.7901 18.0179 14.7256 17.8622 14.6108 17.7474C14.4961 17.6327 14.3404 17.5682 14.1781 17.5682V17.5682ZM17.2403 9L17.3829 9.00839C17.693 9.04489 17.9774 9.19848 18.1779 9.43773C18.3785 9.67699 18.48 9.98384 18.4618 10.2955C18.4436 10.6071 18.3069 10.9001 18.0799 11.1143C17.8528 11.3286 17.5524 11.4479 17.2403 11.4481H16.0162L15.8735 11.4397C15.5635 11.4032 15.2791 11.2496 15.0786 11.0103C14.878 10.7711 14.7765 10.4642 14.7947 10.1526C14.8129 9.8409 14.9496 9.54799 15.1766 9.33374C15.4037 9.11949 15.704 9.0001 16.0162 9H17.2403Z" fill="#D82D8B"/>
</svg>
