<svg width="42" height="38" viewBox="0 0 42 38" xmlns="http://www.w3.org/2000/svg">
    <g fill="none" fill-rule="evenodd">
        <path d="M.5.474h41v37.368H.5z"/>
        <path d="m20.804 20.945-2.507 10.183 4.353-1.805a3 3 0 0 0 1.579-1.522l4.587-10.015c4.928-2.725 7.824-4.494 8.689-5.307 1.297-1.22-1.99-5.218-19.208 3.804-3.816 2.02-6.427 3.125-7.832 3.317l-3.747-2.448-2.56.634 3.721 6.79 12.925-3.631z" stroke="#31CEC8" stroke-width="2" stroke-linejoin="round"/>
        <path d="m18.504 30.807 6.258-13.105c4.102-2.28 5.763-4.456 4.984-6.525 3.182-.619 11.438-1.086 7.098 1.883-2.893 1.979-5.556 3.674-7.99 5.084l-4.577 10.231-5.773 2.432z" fill="#C1F0EE"/>
        <path d="m12.846 8.455.293.067 3.439.913c.684.181 1.073.823.87 1.434-.19.566-.823.906-1.46.807l-.147-.031-3.439-.913a1.44 1.44 0 0 0-.448-.046l-.15.016-1.29.207 7.05 4.423.67-.35 1.168-.594 1.135-.56c6.338-3.068 11.097-4.468 14.32-4.44 3.36.028 5.427 2.151 3.585 3.884-.03.029-.062.058-.097.089l-.228.192-.275.213-.321.234-.178.125-.391.266-.438.287-1.018.639-.58.352-.96.57-1.07.62-2.026 1.148-1.008.56-4.342 9.485c-.455.994-1.284 1.812-2.338 2.318l-.269.12-4.06 1.684c-.97.402-2.037-.361-1.808-1.293l2.029-8.239-10.797 3.033c-.558.157-1.158-.042-1.47-.47l-.079-.123-3.72-6.79c-.356-.648.036-1.424.815-1.617l2.56-.634a1.42 1.42 0 0 1 1.109.18l3.274 2.14.153-.039c.338-.093.734-.227 1.188-.401l.572-.229c.1-.041.202-.084.306-.129l.654-.286.346-.158.733-.344.373-.182L6.5 11.209c-.896-.562-.642-1.778.365-2.045l.149-.032 4.331-.698a4.337 4.337 0 0 1 1.502.021zm21.986 3.238c-2.088-.018-5.147.74-9.156 2.4l-.942.399c-.8.346-1.633.726-2.502 1.141l-1.06.514-.543.27-1.11.565-1.018.533-.869.45-.825.415-.782.383-.74.349-.697.315-.655.283-.614.25c-1.088.426-1.97.686-2.658.78a1.414 1.414 0 0 1-.96-.21l-3.242-2.118-.458.113 2.55 4.652 11.865-3.332c.9-.252 1.772.41 1.674 1.218l-.023.13-1.948 7.907 1.695-.701a2.478 2.478 0 0 0 1.213-1.043l.09-.176 4.503-9.83c.103-.226.283-.416.515-.544l1.301-.724 1.198-.675 1.094-.626 1.296-.757.848-.51.964-.598.597-.387.488-.335c.096-.069.184-.133.264-.194l.108-.083-.02-.01c-.24-.101-.635-.185-1.193-.208zm-15.45-1.101.145.04 1.267.428c.667.225 1.004.89.751 1.486-.235.553-.895.851-1.522.71l-.144-.04-1.267-.428c-.668-.225-1.004-.89-.752-1.486.235-.553.895-.851 1.523-.71z" fill="#31CEC8" fill-rule="nonzero"/>
    </g>
</svg>

